<?xml version="1.0" encoding="UTF-8"?>
<svg width="64px" height="64px" viewBox="0 0 64 64" version="1.1" xmlns="http://www.w3.org/2000/svg" xmlns:xlink="http://www.w3.org/1999/xlink">
    <!-- Generator: Sketch 60.1 (88133) - https://sketch.com -->
    <title>icon_volume-off@1x</title>
    <desc>Created with Sketch.</desc>
    <defs>
        <path d="M30,3.33833947 L30,40.6716728 C30,42.9076894 27.4135155,44.1508181 25.6674799,42.7539896 L13.0645838,32.6716728 L3.33333333,32.6716728 C1.860574,32.6716728 0.666666667,31.4777655 0.666666667,30.0050061 L0.666666667,14.0050061 C0.666666667,12.5322468 1.860574,11.3383395 3.33333333,11.3383395 L13.0645838,11.3383395 L25.6674799,1.25602264 C27.4135155,-0.140805824 30,1.10232291 30,3.33833947 Z M24.6666667,8.8866724 L15.6658535,16.087323 C15.1930187,16.4655908 14.605524,16.6716728 14,16.6716728 L6,16.6716728 L6,27.3383395 L14,27.3383395 C14.605524,27.3383395 15.1930187,27.5444215 15.6658535,27.9226893 L24.6666667,35.1233399 L24.6666667,8.8866724 Z M57.4477153,12.1193881 C58.4891134,11.0779899 60.1775533,11.0779899 61.2189514,12.1193881 C62.2603495,13.1607862 62.2603495,14.8492261 61.2189514,15.8906242 L61.2189514,15.8906242 L55.1046667,22.0046667 L61.2189514,28.1193881 C62.2169579,29.1173946 62.2585415,30.7096461 61.3437022,31.7571731 L61.2189514,31.8906242 C60.1775533,32.9320223 58.4891134,32.9320223 57.4477153,31.8906242 L57.4477153,31.8906242 L51.3336667,25.7756667 L45.2189514,31.8906242 C44.2209449,32.8886307 42.6286934,32.9302143 41.5811664,32.015375 L41.4477153,31.8906242 C40.4063171,30.8492261 40.4063171,29.1607862 41.4477153,28.1193881 L41.4477153,28.1193881 L47.5626667,22.0046667 L41.4477153,15.8906242 C40.4497087,14.8926177 40.4081251,13.3003662 41.3229644,12.2528392 L41.4477153,12.1193881 C42.4891134,11.0779899 44.1775533,11.0779899 45.2189514,12.1193881 L45.2189514,12.1193881 L51.3336667,18.2336667 Z" id="path-1"></path>
    </defs>
    <g id="icon_volume-off" stroke="none" stroke-width="1" fill="none" fill-rule="evenodd">
        <g id="volume-x" transform="translate(2.000000, 10.000000)">
            <mask id="mask-2" fill="white">
                <use xlink:href="#path-1"></use>
            </mask>
            <use id="Combined-Shape" fill="#000000" fill-rule="nonzero" xlink:href="#path-1"></use>
            <g id="COLOR/-black" mask="url(#mask-2)" fill="#FFFFFF">
                <g transform="translate(-2.000000, -10.000000)" id="Rectangle">
                    <rect x="0" y="0" width="64" height="64"></rect>
                </g>
            </g>
        </g>
    </g>
</svg>