<?xml version="1.0" encoding="UTF-8"?>
<svg width="64px" height="64px" viewBox="0 0 64 64" version="1.1" xmlns="http://www.w3.org/2000/svg" xmlns:xlink="http://www.w3.org/1999/xlink">
    <!-- Generator: Sketch 60.1 (88133) - https://sketch.com -->
    <title>icon_back-arrpw@1x</title>
    <desc>Created with Sketch.</desc>
    <defs>
        <path d="M16.7810486,1.11438192 C17.8224467,0.0729838055 19.5108866,0.0729838055 20.5522847,1.11438192 C21.5936829,2.15578003 21.5936829,3.84421997 20.5522847,4.88561808 L20.5522847,4.88561808 L9.104,16.3323333 L45.3333333,16.3333333 C46.7494481,16.3333333 47.9077485,17.4371678 47.9947537,18.8313558 L48,19 C48,20.4727593 46.8060927,21.6666667 45.3333333,21.6666667 L45.3333333,21.6666667 L9.104,21.6663333 L20.5522847,33.1143819 C21.5502913,34.1123884 21.5918749,35.70464 20.6770356,36.7521669 L20.5522847,36.8856181 C19.5108866,37.9270162 17.8224467,37.9270162 16.7810486,36.8856181 L16.7810486,36.8856181 L0.781048584,20.8856181 L0.781048584,20.8856181 L0.673005892,20.7710395 C0.670699102,20.7684446 0.668397301,20.7658452 0.666100504,20.7632413 C0.650443763,20.7456006 0.635034749,20.72768 0.619902768,20.709606 C0.599028195,20.6844931 0.578241637,20.6586859 0.557932407,20.6324901 C0.543778159,20.6145043 0.530478999,20.5969116 0.517426773,20.579194 C0.495394663,20.5489463 0.473503579,20.5178518 0.452269916,20.4862782 C0.440357491,20.4689835 0.428808054,20.4513669 0.417488789,20.4336459 C0.400887258,20.40722 0.38449953,20.3805437 0.368573422,20.3535624 C0.355739729,20.3322441 0.34352628,20.3108585 0.331632741,20.2893433 C0.316131402,20.2609196 0.300954341,20.2322718 0.286289928,20.2033203 C0.275134349,20.1815929 0.264352717,20.1595176 0.253894195,20.1373279 C0.23969012,20.1070192 0.225935836,20.0764064 0.212748595,20.0454938 C0.204268548,20.0256149 0.196260073,20.0061479 0.188491717,19.9866077 C0.175431462,19.9539304 0.162839254,19.9203938 0.150910878,19.8865441 C0.144282431,19.8673424 0.1380412,19.8489279 0.132006853,19.8304605 C0.121104211,19.7976814 0.110704792,19.763668 0.100974434,19.7293733 C-0.0328145066,19.2559384 -0.0336602241,18.7534617 0.098459657,18.2803173 C0.138736643,18.1355586 0.191034377,17.9959901 0.254085518,17.8624964 C0.266159449,17.8366535 0.278789763,17.8109471 0.291859,17.7854074 C0.303407595,17.7632221 0.314897088,17.7415574 0.326673865,17.7200725 C0.340535115,17.6943383 0.355361035,17.6683014 0.370660587,17.6424671 C0.385053731,17.6186257 0.399386733,17.595275 0.414065564,17.5721655 C0.42777428,17.5501388 0.442217581,17.5281222 0.457020481,17.5062765 C0.478112302,17.4755522 0.499402751,17.4454889 0.521290957,17.4158946 C0.531040717,17.4024001 0.541313012,17.3887947 0.551732896,17.3752663 C0.576551492,17.3432834 0.601843448,17.3119067 0.627819762,17.2811263 C0.675982273,17.2239762 0.727119038,17.1683115 0.781048584,17.1143819 L0.66523944,17.2377354 C0.702542051,17.1954032 0.741166621,17.1542639 0.781048584,17.1143819 Z" id="path-1"></path>
    </defs>
    <g id="icon_back-arrpw" stroke="none" stroke-width="1" fill="none" fill-rule="evenodd">
        <g id="arrow-left" transform="translate(8.000000, 13.000000)">
            <mask id="mask-2" fill="white">
                <use xlink:href="#path-1"></use>
            </mask>
            <use id="Combined-Shape" fill="#000000" fill-rule="nonzero" xlink:href="#path-1"></use>
            <g id="COLOR/-black" mask="url(#mask-2)" fill="#FFFFFF">
                <g transform="translate(-8.000000, -13.000000)" id="Rectangle">
                    <rect x="0" y="0" width="64" height="64"></rect>
                </g>
            </g>
        </g>
    </g>
</svg>