<?xml version="1.0" encoding="UTF-8"?>
<svg width="64px" height="64px" viewBox="0 0 64 64" version="1.1" xmlns="http://www.w3.org/2000/svg" xmlns:xlink="http://www.w3.org/1999/xlink">
    <!-- Generator: Sketch 60.1 (88133) - https://sketch.com -->
    <title>icon_volume-on@1x</title>
    <desc>Created with Sketch.</desc>
    <defs>
        <path d="M46.968,1.44743054 C48.0095554,0.406189695 49.6979953,0.40644465 50.7392361,1.448 C62.1904396,12.9026623 62.1904396,31.470671 50.7392361,42.9253333 C49.6979953,43.9668887 48.0095554,43.9671436 46.968,42.9259028 C45.9264446,41.8846619 45.9261897,40.196222 46.9674305,39.1546667 C56.3365971,29.7826702 56.3365971,14.5906631 46.9674305,5.21866667 C45.9261897,4.17711132 45.9264446,2.48867139 46.968,1.44743054 Z M30,3.52 L30,40.8533333 C30,43.0893499 27.4135155,44.3324786 25.6674799,42.9356502 L13.0645838,32.8533333 L3.33333333,32.8533333 C1.860574,32.8533333 0.666666667,31.659426 0.666666667,30.1866667 L0.666666667,14.1866667 C0.666666667,12.7139073 1.860574,11.52 3.33333333,11.52 L13.0645838,11.52 L25.6674799,1.43768318 C27.4135155,0.0408547063 30,1.28398344 30,3.52 Z M24.6666667,9.06833293 L15.6658535,16.2689835 C15.1930187,16.6472513 14.605524,16.8533333 14,16.8533333 L6,16.8533333 L6,27.52 L14,27.52 C14.605524,27.52 15.1930187,27.726082 15.6658535,28.1043498 L24.6666667,35.3050004 L24.6666667,9.06833293 Z M37.5546667,10.8607639 C38.596222,9.81952303 40.2846619,9.81977798 41.3259028,10.8613333 C47.5720138,17.109331 47.5720138,27.2373357 41.3259028,33.4853333 C40.2846619,34.5268887 38.596222,34.5271436 37.5546667,33.4859028 C36.5131113,32.4446619 36.5128564,30.756222 37.5540972,29.7146667 C41.7181712,25.5493349 41.7181712,18.7973317 37.5540972,14.632 C36.5128564,13.5904446 36.5131113,11.9020047 37.5546667,10.8607639 Z" id="path-1"></path>
    </defs>
    <g id="icon_volume-on" stroke="none" stroke-width="1" fill="none" fill-rule="evenodd">
        <g id="volume-2" transform="translate(2.000000, 10.000000)">
            <mask id="mask-2" fill="white">
                <use xlink:href="#path-1"></use>
            </mask>
            <use id="Combined-Shape" fill="#000000" fill-rule="nonzero" xlink:href="#path-1"></use>
            <g id="COLOR/-black" mask="url(#mask-2)" fill="#FFFFFF">
                <g transform="translate(-2.000000, -10.000000)" id="Rectangle">
                    <rect x="0" y="0" width="64" height="64"></rect>
                </g>
            </g>
        </g>
    </g>
</svg>